<?xml version="1.0" encoding="UTF-8" standalone="no"?>
<!DOCTYPE svg  PUBLIC '-//W3C//DTD SVG 1.1//EN'  'http://www.w3.org/Graphics/SVG/1.1/DTD/svg11.dtd'>
<svg xmlns="http://www.w3.org/2000/svg">
<defs>
<font id="OstrichSansRounded-Medium" horiz-adv-x="833">
<font-face underline-position="-50" font-weight="500" descent="-200" panose-1="2 0 5 8 0 0 0 2 0 4" units-per-em="1000" unicode-range="U+0020-2122" bbox="-20 -39 604 676" x-height="674" underline-thickness="50" font-family="OstrichSansRounded" ascent="800" cap-height="674"/>
<missing-glyph horiz-adv-x="210"/>
<glyph glyph-name=".notdef" horiz-adv-x="210"/>
<glyph glyph-name=".null" horiz-adv-x="0"/>
<glyph glyph-name="nonmarkingreturn" horiz-adv-x="210"/>
<glyph glyph-name="space" horiz-adv-x="210" unicode=" "/>
<glyph glyph-name="space" horiz-adv-x="210" unicode=" "/>
<glyph glyph-name="exclam" horiz-adv-x="93" unicode="!" d="M26 43q8 -1 12 -5t4 -10v-12q0 -16 -16 -16t-16 16v12q0 6 4 10t12 5zM26 674q8 0 12 -4t4 -11v-545q0 -16 -16 -16t-16 16v545q0 7 4 11t12 4z"/>
<glyph glyph-name="quotedbl" horiz-adv-x="162" unicode='&quot;' d="M86 675q16 0 16 -16v-57q0 -6 -4 -10t-12 -5q-8 1 -12 5t-4 10v57q0 16 16 16zM26 675q16 0 16 -16v-57q0 -6 -4 -10t-12 -5q-6 1 -10 5t-5 10v57q1 7 5 11t10 5z"/>
<glyph glyph-name="numbersign" horiz-adv-x="542" unicode="#" d="M330 416h-141l-31 -158h141zM473 447q16 0 16 -16q-1 -7 -5 -11t-11 -4h-111l-31 -158h111q6 0 10 -4t5 -12q-1 -6 -5 -11t-10 -5h-117l-42 -213q-2 -13 -15 -13h-3q-15 3 -13 19l41 207h-141l-42 -213q-3 -13 -16 -13h-3q-6 2 -10 7t-2 12l41 207h-125q-7 0 -11 5t-4 11 q0 8 4 12t11 4h131l31 158h-130q-7 0 -11 4t-5 11q0 16 16 16h136l42 215q2 6 7 10q3 3 7 3q2 0 4 -1q7 -2 11 -7t2 -11l-41 -209h141l42 215q2 6 7 10q3 3 8 3q2 0 4 -1q6 -2 10 -7t2 -11l-41 -209h105z"/>
<glyph glyph-name="dollar" horiz-adv-x="320" unicode="$" d="M154 81q37 5 57 35t20 82q1 26 -7 44t-19 30t-25 21q-14 8 -26 14v-226zM45 471q0 -27 7 -45q6 -18 18 -30t26 -22q14 -9 26 -15v234q-22 -3 -36 -15t-24 -29t-13 -37q-4 -20 -4 -41zM161 339q13 -6 31 -16t34 -26t26 -40q11 -24 11 -59q0 -65 -31 -105q-29 -38 -78 -44 v-33q0 -16 -16 -16t-16 16v33q-20 2 -40 10t-34 25q-16 18 -26 46t-9 72q0 16 16 16t16 -16q0 -36 7 -59t18 -37q10 -14 24 -19q14 -6 28 -7v243l-4 2t-3 2q-13 7 -31 17t-33 26q-16 16 -27 42q-11 24 -11 59q0 65 31 107q29 41 78 46v35q0 7 4 11t12 4t12 -4t4 -11v-34 q20 -2 40 -10q20 -7 34 -25q16 -18 26 -47t9 -72q0 -16 -16 -16t-16 16q0 36 -7 59q-7 22 -18 36q-10 14 -24 20t-28 7v-251q2 -2 4 -2t3 -1z"/>
<glyph glyph-name="percent" horiz-adv-x="449" unicode="%" d="M377 223q-1 11 -3 21t-8 19t-16 15t-23 5q-14 1 -24 -5t-16 -15q-7 -9 -9 -19t-2 -21v-86q0 -21 11 -41t40 -20q28 0 39 20t11 41v86zM327 314q37 0 59 -25t22 -66v-86q0 -41 -22 -67t-59 -25q-37 -1 -59 25t-23 67v86q1 41 23 66t59 25zM356 673q9 -5 9 -14q0 -3 -1 -7 l-288 -643q-5 -9 -15 -9q-4 0 -6 1q-7 3 -9 9t1 12l288 643q5 9 14 9q3 0 7 -1zM31 450q-1 -20 11 -40t40 -20t39 20t11 40v86q0 20 -11 40t-39 20t-40 -20t-11 -40v-86zM164 450q0 -40 -23 -66t-59 -26t-59 26t-23 66v86q0 40 23 66t59 26t59 -26t23 -66v-86z"/>
<glyph glyph-name="ampersand" horiz-adv-x="429" unicode="&amp;" d="M150 31q94 0 135 71l-138 237q-7 -7 -15 -13t-16 -14q-18 -15 -34 -29q-16 -15 -26 -31q-12 -16 -18 -37t-7 -49q0 -26 7 -50q8 -24 22 -43t36 -31t54 -11zM150 643q-10 1 -20 -3t-16 -15q-8 -11 -12 -32t-5 -56q0 -19 6 -41t15 -42q8 -20 18 -37t17 -28q4 5 9 12t10 15 q32 53 32 121q0 33 -4 53t-11 33q-7 12 -17 16t-22 4zM368 24q2 -4 2 -8v-4q-2 -6 -8 -10q-4 -2 -8 -2q-8 0 -13 8l-38 64q-51 -72 -153 -72q-68 0 -111 49q-40 46 -40 117q0 33 8 58q7 25 21 45t32 36t35 31q9 8 17 16t18 15q-7 10 -18 29t-21 42q-9 22 -17 48t-8 51 q0 67 17 98q21 39 67 39q52 0 72 -46q9 -20 11 -45t2 -46q0 -36 -7 -65q-8 -29 -18 -51q-10 -23 -21 -37t-19 -22l132 -225q12 39 16 79t4 72q0 8 4 12t11 4q16 0 16 -16q0 -38 -5 -88t-26 -95q0 -1 -1 -2z"/>
<glyph glyph-name="quotesingle" horiz-adv-x="81" unicode="&apos;" d="M26 675q16 0 16 -16v-57q0 -6 -4 -10t-12 -5q-6 1 -10 5t-5 10v57q1 7 5 11t10 5z"/>
<glyph glyph-name="parenleft" horiz-adv-x="166" unicode="(" d="M105 4q-1 1 -17 15t-33 51q-46 95 -46 267q1 103 15 167t32 102t32 52q15 14 16 15q3 2 7 3h3h4q4 -1 7 -6q3 -6 3 -10q0 -3 -1 -6q-2 -4 -5 -7q-6 -5 -13 -13q-6 -7 -13 -18t-15 -28q-13 -32 -27 -92t-14 -159t14 -159t27 -90q15 -32 27 -46q6 -8 13 -12q4 -2 6 -6t2 -7 q0 -4 -3 -9q-3 -4 -7 -6q-2 -1 -4 -1h-3q-4 1 -7 3z"/>
<glyph glyph-name="parenright" horiz-adv-x="158" unicode=")" d="M33 4q-4 -2 -8 -3h-3q-6 0 -10 7q-4 4 -4 8t3 8q2 4 6 6q5 4 12 12q5 7 13 18t15 28q7 16 14 38t13 52t10 70q4 39 4 89q0 99 -14 159t-27 92q-15 33 -27 46t-14 13h1q-3 3 -5 7q-2 3 -2 7t3 9t7 6h4h3q4 -1 7 -3q0 -1 16 -15t33 -52t31 -102t15 -167q0 -171 -45 -267 q-18 -37 -34 -51t-17 -15z"/>
<glyph glyph-name="asterisk" horiz-adv-x="295" unicode="*" d="M248 592q1 -3 1 -5q1 -3 -1 -7q-2 -6 -9 -8l-82 -31l62 -70q5 -5 4 -11t-6 -11q-4 -4 -10 -4q-7 0 -12 5l-65 74l-65 -74q-5 -5 -12 -5t-11 4q-6 5 -6 11t5 11l62 70l-82 31q-7 2 -9 8q-1 3 -1 7q0 3 1 5q2 6 8 9t12 0l82 -30v87q0 16 16 16t16 -16v-87l82 30q6 3 12 0 t8 -9z"/>
<glyph glyph-name="plus" horiz-adv-x="384" unicode="+" d="M314 351q16 0 16 -16t-16 -16h-130v-130q0 -16 -16 -16t-16 16v130h-130q-16 0 -16 16t16 16h130v130q0 16 16 16t16 -16v-130h130z"/>
<glyph glyph-name="comma" horiz-adv-x="85" unicode="," d="M27 -39q-16 0 -16 16v51q0 16 16 16t16 -16v-51q0 -16 -16 -16z"/>
<glyph glyph-name="hyphen" horiz-adv-x="299" unicode="-" d="M236 322h-213q-16 0 -16 16t16 16h213q6 0 10 -4t5 -12q-1 -8 -5 -12t-10 -4z"/>
<glyph glyph-name="period" horiz-adv-x="81" unicode="." d="M30 43q8 -1 12 -5t4 -10v-12q0 -16 -16 -16t-16 16v12q0 6 4 10t12 5z"/>
<glyph glyph-name="slash" horiz-adv-x="384" unicode="/" d="M45 0q-4 0 -6 1q-7 2 -9 8q-1 3 -1 7q0 3 1 5l236 643q4 10 13 10q3 0 8 -1q7 -2 9 -8q1 -3 1 -7q0 -3 -1 -5l-236 -643q-5 -10 -15 -10z"/>
<glyph glyph-name="zero" horiz-adv-x="356" unicode="0" d="M153 643q-57 0 -83 -35q-29 -37 -29 -112v-317q0 -76 29 -113q27 -35 83 -35q55 0 84 35q28 35 28 113v317q0 77 -28 112t-84 35zM153 0q-23 0 -49 7t-47 27t-34 54t-13 91v317q0 86 35 132q37 46 108 46q72 0 108 -46q36 -45 36 -132v-317q0 -57 -13 -91t-34 -54 q-20 -20 -46 -27t-51 -7z"/>
<glyph glyph-name="one" horiz-adv-x="194" unicode="1" d="M116 0q-16 0 -16 16v599l-67 -82q-5 -5 -11 -5t-11 3q-6 6 -6 14q0 5 4 9l95 115q4 6 11 6q3 0 7 -2q10 -3 10 -14v-643q0 -16 -16 -16z"/>
<glyph glyph-name="two" horiz-adv-x="320" unicode="2" d="M252 0h-109h-109q-16 0 -16 16q0 89 23 151q15 39 37 71t54 61q104 93 104 214q0 61 -25 95q-24 35 -68 35q-47 0 -69 -31q-25 -34 -25 -103q-1 -7 -5 -11t-10 -5q-16 0 -16 16q0 80 30 122q33 43 95 43q61 0 94 -48q31 -43 31 -113q0 -135 -115 -238q-53 -47 -77 -105 t-26 -139h93h109q6 -1 11 -5t5 -10q0 -8 -5 -12t-11 -4z"/>
<glyph glyph-name="three" horiz-adv-x="303" unicode="3" d="M206 309q18 -17 36 -49t17 -86q0 -80 -34 -127t-91 -47q-64 0 -95 48q-30 45 -30 130q0 16 16 16q7 0 11 -4t4 -12q0 -75 25 -112q24 -35 69 -35q43 0 68 39t25 104q-1 45 -15 72t-28 41q-20 19 -41 27t-35 7h-1h-29q-6 1 -10 5t-5 10q1 8 5 12t10 4h30q18 0 39 9t39 27 t29 46q12 28 12 65q0 64 -25 105q-24 39 -68 39q-94 0 -94 -148q0 -7 -4 -11t-11 -5q-16 0 -16 16q0 85 30 130q31 49 95 49q60 0 95 -54q30 -47 30 -121q1 -52 -17 -85t-36 -50q-20 -18 -38 -28q21 -11 38 -27z"/>
<glyph glyph-name="four" horiz-adv-x="324" unicode="4" d="M46 237h199v360zM261 0q-16 0 -16 16v190h-225q-9 0 -14 7q-2 4 -2 8t2 8l241 437q5 9 13 9q2 0 5 -1q12 -3 12 -15v-643q0 -8 -5 -12t-11 -4z"/>
<glyph glyph-name="five" horiz-adv-x="310" unicode="5" d="M230 374q31 -43 31 -127v-71q0 -34 -8 -66t-22 -55q-35 -55 -95 -55q-62 0 -95 47q-30 45 -30 129q0 16 16 16q7 0 11 -4t4 -12q0 -74 25 -111q24 -34 69 -34q42 0 68 41q25 41 25 104v71q0 75 -25 109q-22 32 -68 32q-43 0 -69 -38q-25 -39 -25 -103v-1q0 -8 -4 -12 t-11 -4q-16 0 -16 16v413q1 7 5 11t11 4h218q6 0 11 -4t5 -11t-5 -11t-11 -5h-203v-274q36 51 94 51q62 0 94 -46z"/>
<glyph glyph-name="six" horiz-adv-x="312" unicode="6" d="M40 254v-96q0 -18 3 -40t13 -42t28 -32q18 -13 49 -13q44 0 68 42q13 19 19 47t6 60v73q0 76 -24 112q-23 33 -69 33q-44 0 -68 -40q-25 -39 -25 -104zM133 0q-59 0 -92 42t-33 116v95v1v199q0 72 13 116t32 67q19 22 41 30t39 8q62 0 94 -44q31 -40 31 -110q0 -6 -4 -10 t-12 -5q-6 1 -11 5t-5 10q0 59 -24 91t-69 32q-31 1 -49 -19t-28 -49t-13 -62t-3 -60v-75q34 51 93 51q64 0 95 -46q30 -45 30 -130v-73q0 -36 -8 -68t-22 -56q-33 -56 -95 -56z"/>
<glyph glyph-name="seven" horiz-adv-x="376" unicode="7" d="M58 0q-4 0 -6 1q-6 3 -8 9t0 12l259 621h-284q-7 1 -11 5t-4 11t4 11t11 4h307q9 0 13 -7q3 -4 3 -9q0 -3 -1 -6l-268 -642q-5 -10 -15 -10z"/>
<glyph glyph-name="eight" horiz-adv-x="332" unicode="8" d="M224 64q25 34 25 112t-25 113q-24 33 -78 33t-79 -33q-25 -35 -25 -113t25 -112q25 -33 79 -33t78 33zM67 386q25 -33 79 -33t78 33q25 34 25 112t-25 112q-24 33 -78 33t-79 -33q-25 -34 -25 -112t25 -112zM216 337q19 -11 33 -30q32 -42 32 -131t-32 -131 q-33 -45 -103 -45q-71 0 -104 45q-32 44 -32 131t32 131q14 20 34 30q-20 11 -34 30q-32 44 -32 131t32 131q33 45 104 45q70 0 103 -45q32 -42 32 -131t-32 -131q-14 -18 -33 -30z"/>
<glyph glyph-name="nine" horiz-adv-x="308" unicode="9" d="M131 643q-43 0 -68 -40q-25 -41 -25 -107v-74q0 -78 25 -113q22 -33 68 -33q44 0 68 40q13 19 19 46t6 59v97q0 62 -24 94q-23 31 -69 31zM131 0q-62 0 -94 46q-31 43 -31 117q0 16 16 16t16 -16q0 -65 24 -99q24 -33 69 -33q29 -1 47 17t28 46t14 60q4 34 4 66v76 q-16 -24 -40 -38t-53 -14q-62 0 -94 47q-31 44 -31 131v74q0 82 34 130t91 48q62 0 94 -43q31 -40 31 -113v-96v-1v-201q0 -103 -29 -159q-32 -61 -96 -61z"/>
<glyph glyph-name="colon" horiz-adv-x="113" unicode=":" d="M29 239q7 -1 11 -5t4 -11v-44q0 -7 -4 -11t-11 -5q-16 0 -16 16v44q0 16 16 16zM29 514q7 0 11 -4t4 -11v-45q0 -8 -4 -12t-11 -4q-16 0 -16 16v45q1 7 5 11t11 4z"/>
<glyph glyph-name="semicolon" horiz-adv-x="97" unicode=";" d="M28 239q16 0 16 -16v-80q0 -16 -16 -16t-16 16v80q0 16 16 16zM28 514q8 0 12 -4t4 -11v-45q0 -16 -16 -16t-16 16v45q0 7 4 11t12 4z"/>
<glyph glyph-name="less" unicode="&lt;"/>
<glyph glyph-name="equal" horiz-adv-x="312" unicode="=" d="M236 222h-213q-16 0 -16 16t16 16h213q6 0 10 -4t5 -12q-1 -8 -5 -12t-10 -4zM236 422h-213q-16 0 -16 16t16 16h213q6 0 10 -4t5 -12q-1 -8 -5 -12t-10 -4z"/>
<glyph glyph-name="greater" unicode="&gt;"/>
<glyph glyph-name="question" horiz-adv-x="303" unicode="?" d="M111 44q7 0 11 -4t5 -11v-12q0 -16 -16 -16t-16 16v12q1 7 5 11t11 4zM233 624q15 -22 23 -52t7 -65q-1 -37 -9 -63t-20 -46t-26 -32q-14 -13 -24 -22q-4 -4 -8 -7t-7 -6q-20 -23 -31 -78t-11 -134v-3q-1 -8 -5 -12t-10 -4q-16 0 -16 16v3q0 30 2 64q2 33 6 65 q6 32 16 60t26 44q6 8 18 16q10 9 22 20q12 12 22 28t16 38t7 53q0 29 -6 55t-18 44q-26 38 -69 38q-46 0 -68 -34q-25 -34 -25 -108q-1 -6 -5 -10t-11 -5q-7 1 -11 5t-5 10q0 81 31 126q31 47 94 47q61 0 95 -51z"/>
<glyph glyph-name="at" horiz-adv-x="647" unicode="@" d="M271 241q25 1 39 3t23 11q11 11 19 36t16 68q2 14 2 24q0 9 -2 15q-5 12 -13 17q-7 6 -23 9t-36 3q-42 0 -64 -23q-22 -25 -28 -76q-2 -14 -2 -26q0 -30 13 -44q14 -17 56 -17zM387 165q-23 5 -33 21q-8 12 -8 29q0 5 1 10q-17 -11 -35 -13t-41 -3q-55 0 -80 28 q-20 24 -20 69q0 12 1 26q8 62 37 93q31 34 87 34q14 0 37 -3t40 -15q3 -2 8 -7q1 4 1 8q2 6 7 10t11 2q7 -1 11 -6t2 -12l-2 -14q-1 -14 -5 -35t-8 -47t-9 -48l-7 -42t-4 -27v-5q0 -17 17 -23q3 -1 7 -1t9 -1q17 0 37 6q20 5 40 17t35 28q16 16 24 36q11 26 15 56 q3 19 2 39v21q-2 30 -11 59q-8 28 -22 49q-19 30 -47 52t-60 33q-34 13 -72 15q-9 1 -17 0q-29 0 -59 -6q-36 -8 -72 -26t-69 -49q-32 -31 -56 -75t-33 -102q-5 -30 -5 -57q0 -55 19 -101q28 -69 94 -110q42 -26 94 -37q40 -9 81 -9q11 0 23 1q52 3 102 19t92 46q6 4 12 3 t10 -6q8 -13 -3 -23q-44 -32 -98 -50t-114 -21h-22q-54 1 -103 13t-90 37q-75 47 -107 123q-21 51 -21 113q0 31 5 64q18 114 93 190q33 34 74 56t88 32q32 7 64 7q12 0 22 -1q42 -3 80 -17t68 -38q32 -24 54 -59q16 -25 25 -57t11 -64q1 -12 1 -24q-1 -22 -3 -44 q-4 -34 -16 -64q-12 -26 -34 -48t-50 -36t-55 -20q-13 -2 -24 -2q-14 0 -26 3z"/>
<glyph glyph-name="A" horiz-adv-x="392" unicode="A" d="M259 237l-82 352l-81 -352h163zM342 19q1 -2 1 -4q0 -3 -3 -7q-4 -6 -10 -8h-4q-12 0 -15 12l-45 194h-177l-45 -194q-2 -6 -8 -10q-4 -3 -7 -3q-2 0 -4 1q-7 2 -11 8q-2 4 -2 7q0 2 1 4l149 643q3 12 15 12q13 0 16 -12z"/>
<glyph glyph-name="B" horiz-adv-x="336" unicode="B" d="M125 31q63 -1 90 33t27 112t-28 112q-27 34 -89 34h-79v-291h79zM46 353h79q62 0 89 34q28 34 28 111q0 78 -27 112t-90 33h-79v-290zM202 337q22 -11 37 -29q35 -44 35 -132t-35 -132q-37 -44 -114 -44h-95q-16 0 -16 16v643q0 7 4 11t12 4h95q77 0 114 -44 q35 -44 35 -132q0 -87 -35 -131q-8 -10 -17 -17t-20 -13z"/>
<glyph glyph-name="C" horiz-adv-x="344" unicode="C" d="M153 0q-23 0 -49 7t-47 27t-34 54t-13 91v317q0 55 13 90q13 34 34 54t47 27t49 7q25 0 51 -7t46 -27q21 -20 34 -54q13 -35 13 -90q0 -16 -16 -16t-16 16q0 75 -29 112q-26 35 -83 35q-55 0 -83 -35q-29 -37 -29 -112v-317q0 -75 29 -113q29 -35 83 -35q56 0 83 35 q29 38 29 113q0 16 16 16t16 -16q0 -57 -13 -91t-34 -54q-20 -20 -46 -27t-51 -7z"/>
<glyph glyph-name="D" horiz-adv-x="348" unicode="D" d="M43 31h84q65 1 95 37t29 114v310q1 78 -29 114t-95 37h-84v-612zM127 0h-99q-16 0 -16 16v643q0 7 4 11t12 4h99q80 0 119 -48q37 -44 37 -134v-310q0 -90 -37 -134q-39 -48 -119 -48z"/>
<glyph glyph-name="E" horiz-adv-x="312" unicode="E" d="M42 322v-291h195q7 -1 11 -5t5 -10q0 -16 -16 -16h-210q-16 0 -16 16v643q1 7 5 11t11 4h210q7 0 11 -4t5 -11q0 -16 -16 -16h-195v-290h195q16 0 16 -16q-1 -7 -5 -11t-11 -4h-195z"/>
<glyph glyph-name="F" horiz-adv-x="308" unicode="F" d="M241 353q16 0 16 -16q-1 -7 -5 -11t-11 -4h-195v-306q0 -8 -4 -12t-11 -4q-16 0 -16 16v643q1 7 5 11t11 4h210q7 0 11 -4t5 -11q0 -16 -16 -16h-195v-290h195z"/>
<glyph glyph-name="G" horiz-adv-x="352" unicode="G" d="M151 0q-71 0 -108 46q-36 45 -36 132v319q0 87 36 132t108 45t108 -45t36 -132q0 -16 -16 -16t-16 16q0 49 -11 78q-12 29 -28 44t-36 19t-37 5q-18 -1 -38 -5q-21 -4 -37 -19t-27 -44t-11 -78v-319q0 -75 29 -112q29 -35 84 -35t84 35q28 35 28 112v88h-130 q-16 0 -16 16t16 16h146q16 0 16 -16v-104q0 -87 -36 -132q-37 -46 -108 -46z"/>
<glyph glyph-name="H" horiz-adv-x="344" unicode="H" d="M264 674q8 0 12 -4t4 -11v-643q0 -16 -16 -16t-16 16v305h-204v-305q0 -16 -16 -16t-16 16v643q0 7 4 11t12 4t12 -4t4 -11v-306h204v306q0 7 4 11t12 4z"/>
<glyph glyph-name="I" horiz-adv-x="105" unicode="I" d="M34 0q-16 0 -16 16v643q0 7 4 11t12 4t12 -4t4 -11v-643q0 -16 -16 -16z"/>
<glyph glyph-name="J" horiz-adv-x="324" unicode="J" d="M134 0q-67 0 -101 43q-33 40 -33 122q0 6 4 11t12 5q6 0 10 -5t5 -11q0 -45 10 -71t25 -41q15 -14 33 -18t35 -4q50 0 76 31q26 34 26 103v494q0 7 4 11t12 4q6 0 10 -4t5 -11v-494q0 -82 -33 -122q-33 -43 -100 -43z"/>
<glyph glyph-name="K" horiz-adv-x="360" unicode="K" d="M318 23q2 -3 2 -7q0 -2 -1 -4q-2 -6 -7 -10q-6 -2 -8 -2q-9 0 -14 8l-183 327l-68 -102v-217q-1 -8 -5 -12t-10 -4q-16 0 -16 16v643q0 7 4 11t12 4q6 0 10 -4t5 -11v-368l252 376q5 6 11 7h3q5 0 8 -2q7 -6 7 -14q0 -4 -3 -8l-190 -286z"/>
<glyph glyph-name="L" horiz-adv-x="295" unicode="L" d="M247 0h-226q-16 0 -16 16v643q1 7 5 11t11 4t11 -4t4 -11v-628h211q7 -1 11 -5t5 -10q0 -16 -16 -16z"/>
<glyph glyph-name="M" horiz-adv-x="473" unicode="M" d="M392 0q-16 0 -16 16v530l-153 -535q-4 -11 -16 -11q-11 0 -15 11l-153 535v-530q0 -16 -16 -16t-16 16v643q0 13 14 15h3q10 0 14 -11l169 -590l170 590q3 11 14 11h3q14 -2 14 -15v-643q0 -8 -5 -12t-11 -4z"/>
<glyph glyph-name="N" horiz-adv-x="360" unicode="N" d="M285 0q-11 0 -14 10l-229 567v-561q0 -16 -16 -16t-16 16v643q0 13 13 15h4q10 0 14 -10l228 -567v562q1 7 5 11t11 4t11 -4t5 -11v-643q0 -13 -13 -16h-3z"/>
<glyph glyph-name="O" horiz-adv-x="348" unicode="O" d="M153 643q-57 0 -83 -35q-29 -37 -29 -112v-317q0 -76 29 -113q27 -35 83 -35q55 0 84 35q28 35 28 113v317q0 77 -28 112t-84 35zM153 0q-23 0 -49 7t-47 27t-34 54t-13 91v317q0 86 35 132q37 46 108 46q72 0 108 -46q36 -45 36 -132v-317q0 -57 -13 -91t-34 -54 q-20 -20 -46 -27t-51 -7z"/>
<glyph glyph-name="P" horiz-adv-x="340" unicode="P" d="M42 353h90q65 0 95 34q29 33 29 111t-29 112t-95 33h-90v-290zM26 0q-16 0 -16 16v643q0 7 4 11t12 4h106q81 0 119 -44q37 -43 37 -132t-37 -132q-38 -44 -119 -44h-90v-306q0 -16 -16 -16z"/>
<glyph glyph-name="Q" horiz-adv-x="348" unicode="Q" d="M150 31q38 0 64 18l-34 43q-5 5 -4 11t6 11q12 8 22 -2l32 -40q26 38 26 110v317q0 74 -29 111q-27 33 -83 33t-83 -33q-29 -37 -29 -111v-317q0 -76 29 -114q28 -37 83 -37zM295 1q3 -4 3 -9q0 -8 -6 -13q-3 -4 -9 -4q-9 0 -13 6l-36 44q-32 -25 -84 -25q-71 0 -108 49 q-35 47 -35 133v317q0 86 36 130q36 45 107 45q72 0 108 -45q35 -42 35 -130v-317q0 -88 -35 -133v-1l-1 -1z"/>
<glyph glyph-name="R" horiz-adv-x="348" unicode="R" d="M44 348h90q65 0 95 35q29 33 29 114q0 79 -29 113t-95 34h-90v-296zM247 307q44 -42 44 -119v-171q0 -16 -16 -16q-7 1 -11 5t-4 11v171q0 62 -33 96t-93 33h-90v-300q0 -16 -16 -16q-6 1 -10 5t-5 11v643q1 6 5 10t10 5h106q80 0 118 -43t38 -135q0 -91 -37 -135 q-16 -19 -41 -30q10 -5 18 -11t17 -14z"/>
<glyph glyph-name="S" horiz-adv-x="352" unicode="S" d="M158 1q-72 0 -108 46q-36 45 -36 132q0 16 16 16q6 -1 10 -5t5 -11q0 -49 11 -78q12 -29 28 -45t36 -20t38 -4q54 0 84 38t29 104q-1 36 -13 60t-30 40t-36 25q-19 9 -31 15l-17 8q-15 6 -37 18q-23 12 -43 32t-35 50t-15 74q0 76 35 125q39 54 109 54q72 0 109 -46 q36 -45 36 -133q-1 -6 -5 -11t-11 -5t-11 5t-5 11q0 76 -29 113q-27 35 -84 35q-53 0 -83 -42q-30 -41 -30 -106q0 -36 12 -61q11 -25 29 -41t37 -27q19 -10 34 -16l16 -7q13 -6 35 -17t43 -31t37 -48q16 -30 15 -74q1 -37 -9 -68t-27 -54q-39 -51 -109 -51z"/>
<glyph glyph-name="T" horiz-adv-x="380" unicode="T" d="M324 675q8 -1 12 -5t4 -10q0 -16 -16 -16h-145v-627q0 -7 -5 -11t-11 -5q-16 0 -16 16v627h-146q-7 0 -11 4t-4 12q0 6 4 10t11 5h323z"/>
<glyph glyph-name="U" horiz-adv-x="348" unicode="U" d="M143 1q-23 1 -47 7t-42 24q-20 18 -32 51q-12 32 -13 83v494q1 6 5 10t11 5q7 -1 11 -5t4 -10v-494q0 -46 10 -72t25 -40t33 -18t35 -4q16 0 34 4t33 18t25 40t10 72v494q1 6 5 10t10 5q8 -1 12 -5t4 -10v-494q0 -51 -12 -83q-12 -33 -32 -51t-42 -24q-24 -6 -47 -7z"/>
<glyph glyph-name="V" horiz-adv-x="401" unicode="V" d="M182 1q-12 0 -15 12l-161 643q-1 2 -1 4q1 4 3 8q4 6 10 7q2 1 4 1q4 0 8 -2q6 -4 7 -11l145 -581l146 581q2 7 8 11q4 2 7 2q2 0 4 -1q5 -1 9 -7q2 -4 3 -8q0 -2 -1 -4l-160 -643q-3 -12 -16 -12z"/>
<glyph glyph-name="W" horiz-adv-x="651" unicode="W" d="M446 1q-13 0 -15 12l-127 573l-126 -573q-3 -12 -16 -12q-12 0 -15 12l-142 643q-1 2 -1 4q0 4 3 8q4 6 10 7h4q13 0 15 -12l126 -573l127 573q2 12 15 12t16 -12l126 -573l126 573q2 5 8 9q4 3 8 3h3q7 -1 11 -7q2 -4 2 -8q0 -2 -1 -4l-142 -643q-2 -12 -15 -12z"/>
<glyph glyph-name="X" horiz-adv-x="392" unicode="X" d="M341 23q2 -3 2 -7q1 -3 -1 -5q-2 -6 -9 -9q-2 -1 -6 -1q-11 0 -15 9l-137 291l-137 -291q-5 -9 -14 -9q-5 0 -7 1q-9 5 -9 14q0 3 1 7l149 315l-149 314q-1 3 -1 6q0 2 1 6q2 6 8 9q5 2 9 2q8 0 12 -9l137 -291l137 291q4 6 10 8q3 1 4 1q4 0 7 -2q7 -3 9 -9q1 -3 1 -5 q0 -3 -2 -7l-148 -314z"/>
<glyph glyph-name="Y" horiz-adv-x="417" unicode="Y" d="M379 673q6 -3 8 -9q1 -2 1 -5q0 -4 -3 -7l-174 -318v-318q-1 -6 -5 -10t-11 -5q-7 1 -11 5t-5 10v318l-174 318q-2 3 -2 7q1 3 1 5q2 6 7 9q4 2 7 2l5 -1q6 -2 10 -7l162 -296l163 296q4 5 10 7q3 1 4 1q4 0 7 -2z"/>
<glyph glyph-name="Z" horiz-adv-x="409" unicode="Z" d="M320 1h-301q-10 0 -14 7q-2 5 -2 9q0 3 1 6l291 620h-276q-16 0 -16 16t16 16h301q9 0 13 -7q5 -9 1 -16l-291 -620h277q16 0 16 -16q0 -6 -4 -10t-12 -5z"/>
<glyph glyph-name="bracketleft" unicode="["/>
<glyph glyph-name="backslash" horiz-adv-x="380" unicode="\" d="M283 0q-10 0 -15 10l-236 643q-1 3 -1 5q-1 3 1 7q2 6 9 8q4 1 8 1q10 0 13 -10l236 -643q1 -3 1 -5q1 -3 -1 -7q-2 -6 -9 -8q-2 -1 -6 -1z"/>
<glyph glyph-name="bracketright" unicode="]"/>
<glyph glyph-name="asciicircum" unicode="^"/>
<glyph glyph-name="underscore" horiz-adv-x="461" unicode="_" d="M398 -32h-372q-16 0 -16 16q0 6 4 10t12 5h372q8 -1 12 -5t4 -10q0 -16 -16 -16z"/>
<glyph glyph-name="grave" horiz-adv-x="81" unicode="`" d="M26 675q16 0 16 -16v-57q0 -6 -4 -10t-12 -5q-6 1 -10 5t-5 10v57q1 7 5 11t10 5z"/>
<glyph glyph-name="a" horiz-adv-x="392" unicode="a" d="M259 237l-82 352l-81 -352h163zM342 19q1 -2 1 -4q0 -3 -3 -7q-4 -6 -10 -8h-4q-12 0 -15 12l-45 194h-177l-45 -194q-2 -6 -8 -10q-4 -3 -7 -3q-2 0 -4 1q-7 2 -11 8q-2 4 -2 7q0 2 1 4l149 643q3 12 15 12q13 0 16 -12z"/>
<glyph glyph-name="b" horiz-adv-x="336" unicode="b" d="M125 31q63 -1 90 33t27 112t-28 112q-27 34 -89 34h-79v-291h79zM46 353h79q62 0 89 34q28 34 28 111q0 78 -27 112t-90 33h-79v-290zM202 337q22 -11 37 -29q35 -44 35 -132t-35 -132q-37 -44 -114 -44h-95q-16 0 -16 16v643q0 7 4 11t12 4h95q77 0 114 -44 q35 -44 35 -132q0 -87 -35 -131q-8 -10 -17 -17t-20 -13z"/>
<glyph glyph-name="c" horiz-adv-x="344" unicode="c" d="M153 0q-23 0 -49 7t-47 27t-34 54t-13 91v317q0 55 13 90q13 34 34 54t47 27t49 7q25 0 51 -7t46 -27q21 -20 34 -54q13 -35 13 -90q0 -16 -16 -16t-16 16q0 75 -29 112q-26 35 -83 35q-55 0 -83 -35q-29 -37 -29 -112v-317q0 -75 29 -113q29 -35 83 -35q56 0 83 35 q29 38 29 113q0 16 16 16t16 -16q0 -57 -13 -91t-34 -54q-20 -20 -46 -27t-51 -7z"/>
<glyph glyph-name="d" horiz-adv-x="348" unicode="d" d="M43 31h84q65 1 95 37t29 114v310q1 78 -29 114t-95 37h-84v-612zM127 0h-99q-16 0 -16 16v643q0 7 4 11t12 4h99q80 0 119 -48q37 -44 37 -134v-310q0 -90 -37 -134q-39 -48 -119 -48z"/>
<glyph glyph-name="e" horiz-adv-x="312" unicode="e" d="M42 322v-291h195q7 -1 11 -5t5 -10q0 -16 -16 -16h-210q-16 0 -16 16v643q1 7 5 11t11 4h210q7 0 11 -4t5 -11q0 -16 -16 -16h-195v-290h195q16 0 16 -16q-1 -7 -5 -11t-11 -4h-195z"/>
<glyph glyph-name="f" horiz-adv-x="308" unicode="f" d="M241 353q16 0 16 -16q-1 -7 -5 -11t-11 -4h-195v-306q0 -8 -4 -12t-11 -4q-16 0 -16 16v643q1 7 5 11t11 4h210q7 0 11 -4t5 -11q0 -16 -16 -16h-195v-290h195z"/>
<glyph glyph-name="g" horiz-adv-x="352" unicode="g" d="M151 0q-71 0 -108 46q-36 45 -36 132v319q0 87 36 132t108 45t108 -45t36 -132q0 -16 -16 -16t-16 16q0 49 -11 78q-12 29 -28 44t-36 19t-37 5q-18 -1 -38 -5q-21 -4 -37 -19t-27 -44t-11 -78v-319q0 -75 29 -112q29 -35 84 -35t84 35q28 35 28 112v88h-130 q-16 0 -16 16t16 16h146q16 0 16 -16v-104q0 -87 -36 -132q-37 -46 -108 -46z"/>
<glyph glyph-name="h" horiz-adv-x="344" unicode="h" d="M264 674q8 0 12 -4t4 -11v-643q0 -16 -16 -16t-16 16v305h-204v-305q0 -16 -16 -16t-16 16v643q0 7 4 11t12 4t12 -4t4 -11v-306h204v306q0 7 4 11t12 4z"/>
<glyph glyph-name="i" horiz-adv-x="105" unicode="i" d="M34 0q-16 0 -16 16v643q0 7 4 11t12 4t12 -4t4 -11v-643q0 -16 -16 -16z"/>
<glyph glyph-name="j" horiz-adv-x="324" unicode="j" d="M134 0q-67 0 -101 43q-33 40 -33 122q0 6 4 11t12 5q6 0 10 -5t5 -11q0 -45 10 -71t25 -41q15 -14 33 -18t35 -4q50 0 76 31q26 34 26 103v494q0 7 4 11t12 4q6 0 10 -4t5 -11v-494q0 -82 -33 -122q-33 -43 -100 -43z"/>
<glyph glyph-name="k" horiz-adv-x="360" unicode="k" d="M318 23q2 -3 2 -7q0 -2 -1 -4q-2 -6 -7 -10q-6 -2 -8 -2q-9 0 -14 8l-183 327l-68 -102v-217q-1 -8 -5 -12t-10 -4q-16 0 -16 16v643q0 7 4 11t12 4q6 0 10 -4t5 -11v-368l252 376q5 6 11 7h3q5 0 8 -2q7 -6 7 -14q0 -4 -3 -8l-190 -286z"/>
<glyph glyph-name="l" horiz-adv-x="295" unicode="l" d="M247 0h-226q-16 0 -16 16v643q1 7 5 11t11 4t11 -4t4 -11v-628h211q7 -1 11 -5t5 -10q0 -16 -16 -16z"/>
<glyph glyph-name="m" horiz-adv-x="473" unicode="m" d="M392 0q-16 0 -16 16v530l-153 -535q-4 -11 -16 -11q-11 0 -15 11l-153 535v-530q0 -16 -16 -16t-16 16v643q0 13 14 15h3q10 0 14 -11l169 -590l170 590q3 11 14 11h3q14 -2 14 -15v-643q0 -8 -5 -12t-11 -4z"/>
<glyph glyph-name="n" horiz-adv-x="360" unicode="n" d="M285 0q-11 0 -14 10l-229 567v-561q0 -16 -16 -16t-16 16v643q0 13 13 15h4q10 0 14 -10l228 -567v562q1 7 5 11t11 4t11 -4t5 -11v-643q0 -13 -13 -16h-3z"/>
<glyph glyph-name="o" horiz-adv-x="348" unicode="o" d="M153 643q-57 0 -83 -35q-29 -37 -29 -112v-317q0 -76 29 -113q27 -35 83 -35q55 0 84 35q28 35 28 113v317q0 77 -28 112t-84 35zM153 0q-23 0 -49 7t-47 27t-34 54t-13 91v317q0 86 35 132q37 46 108 46q72 0 108 -46q36 -45 36 -132v-317q0 -57 -13 -91t-34 -54 q-20 -20 -46 -27t-51 -7z"/>
<glyph glyph-name="p" horiz-adv-x="340" unicode="p" d="M42 353h90q65 0 95 34q29 33 29 111t-29 112t-95 33h-90v-290zM26 0q-16 0 -16 16v643q0 7 4 11t12 4h106q81 0 119 -44q37 -43 37 -132t-37 -132q-38 -44 -119 -44h-90v-306q0 -16 -16 -16z"/>
<glyph glyph-name="q" horiz-adv-x="348" unicode="q" d="M150 31q38 0 64 18l-34 43q-5 5 -4 11t6 11q12 8 22 -2l32 -40q26 38 26 110v317q0 74 -29 111q-27 33 -83 33t-83 -33q-29 -37 -29 -111v-317q0 -76 29 -114q28 -37 83 -37zM295 1q3 -4 3 -9q0 -8 -6 -13q-3 -4 -9 -4q-9 0 -13 6l-36 44q-32 -25 -84 -25q-71 0 -108 49 q-35 47 -35 133v317q0 86 36 130q36 45 107 45q72 0 108 -45q35 -42 35 -130v-317q0 -88 -35 -133v-1l-1 -1z"/>
<glyph glyph-name="r" horiz-adv-x="348" unicode="r" d="M44 348h90q65 0 95 35q29 33 29 114q0 79 -29 113t-95 34h-90v-296zM247 307q44 -42 44 -119v-171q0 -16 -16 -16q-7 1 -11 5t-4 11v171q0 62 -33 96t-93 33h-90v-300q0 -16 -16 -16q-6 1 -10 5t-5 11v643q1 6 5 10t10 5h106q80 0 118 -43t38 -135q0 -91 -37 -135 q-16 -19 -41 -30q10 -5 18 -11t17 -14z"/>
<glyph glyph-name="s" horiz-adv-x="352" unicode="s" d="M158 1q-72 0 -108 46q-36 45 -36 132q0 16 16 16q6 -1 10 -5t5 -11q0 -49 11 -78q12 -29 28 -45t36 -20t38 -4q54 0 84 38t29 104q-1 36 -13 60t-30 40t-36 25q-19 9 -31 15l-17 8q-15 6 -37 18q-23 12 -43 32t-35 50t-15 74q0 76 35 125q39 54 109 54q72 0 109 -46 q36 -45 36 -133q-1 -6 -5 -11t-11 -5t-11 5t-5 11q0 76 -29 113q-27 35 -84 35q-53 0 -83 -42q-30 -41 -30 -106q0 -36 12 -61q11 -25 29 -41t37 -27q19 -10 34 -16l16 -7q13 -6 35 -17t43 -31t37 -48q16 -30 15 -74q1 -37 -9 -68t-27 -54q-39 -51 -109 -51z"/>
<glyph glyph-name="t" horiz-adv-x="380" unicode="t" d="M324 675q8 -1 12 -5t4 -10q0 -16 -16 -16h-145v-627q0 -7 -5 -11t-11 -5q-16 0 -16 16v627h-146q-7 0 -11 4t-4 12q0 6 4 10t11 5h323z"/>
<glyph glyph-name="u" horiz-adv-x="348" unicode="u" d="M143 1q-23 1 -47 7t-42 24q-20 18 -32 51q-12 32 -13 83v494q1 6 5 10t11 5q7 -1 11 -5t4 -10v-494q0 -46 10 -72t25 -40t33 -18t35 -4q16 0 34 4t33 18t25 40t10 72v494q1 6 5 10t10 5q8 -1 12 -5t4 -10v-494q0 -51 -12 -83q-12 -33 -32 -51t-42 -24q-24 -6 -47 -7z"/>
<glyph glyph-name="v" horiz-adv-x="401" unicode="v" d="M182 1q-12 0 -15 12l-161 643q-1 2 -1 4q1 4 3 8q4 6 10 7q2 1 4 1q4 0 8 -2q6 -4 7 -11l145 -581l146 581q2 7 8 11q4 2 7 2q2 0 4 -1q5 -1 9 -7q2 -4 3 -8q0 -2 -1 -4l-160 -643q-3 -12 -16 -12z"/>
<glyph glyph-name="w" horiz-adv-x="651" unicode="w" d="M446 1q-13 0 -15 12l-127 573l-126 -573q-3 -12 -16 -12q-12 0 -15 12l-142 643q-1 2 -1 4q0 4 3 8q4 6 10 7h4q13 0 15 -12l126 -573l127 573q2 12 15 12t16 -12l126 -573l126 573q2 5 8 9q4 3 8 3h3q7 -1 11 -7q2 -4 2 -8q0 -2 -1 -4l-142 -643q-2 -12 -15 -12z"/>
<glyph glyph-name="x" horiz-adv-x="392" unicode="x" d="M341 23q2 -3 2 -7q1 -3 -1 -5q-2 -6 -9 -9q-2 -1 -6 -1q-11 0 -15 9l-137 291l-137 -291q-5 -9 -14 -9q-5 0 -7 1q-9 5 -9 14q0 3 1 7l149 315l-149 314q-1 3 -1 6q0 2 1 6q2 6 8 9q5 2 9 2q8 0 12 -9l137 -291l137 291q4 6 10 8q3 1 4 1q4 0 7 -2q7 -3 9 -9q1 -3 1 -5 q0 -3 -2 -7l-148 -314z"/>
<glyph glyph-name="y" horiz-adv-x="417" unicode="y" d="M379 673q6 -3 8 -9q1 -2 1 -5q0 -4 -3 -7l-174 -318v-318q-1 -6 -5 -10t-11 -5q-7 1 -11 5t-5 10v318l-174 318q-2 3 -2 7q1 3 1 5q2 6 7 9q4 2 7 2l5 -1q6 -2 10 -7l162 -296l163 296q4 5 10 7q3 1 4 1q4 0 7 -2z"/>
<glyph glyph-name="z" horiz-adv-x="409" unicode="z" d="M320 1h-301q-10 0 -14 7q-2 5 -2 9q0 3 1 6l291 620h-276q-16 0 -16 16t16 16h301q9 0 13 -7q5 -9 1 -16l-291 -620h277q16 0 16 -16q0 -6 -4 -10t-12 -5z"/>
<glyph glyph-name="braceleft" unicode="{"/>
<glyph glyph-name="bar" horiz-adv-x="89" unicode="|" d="M24 0q-16 0 -16 16v643q0 7 4 11t12 4t12 -4t4 -11v-643q0 -16 -16 -16z"/>
<glyph glyph-name="braceright" unicode="}"/>
<glyph glyph-name="asciitilde" unicode="~"/>
<glyph glyph-name="copyright" unicode="©"/>
<glyph glyph-name="registered" unicode="®"/>
<glyph glyph-name="dotlessi" horiz-adv-x="105" unicode="ı" d="M34 0q-16 0 -16 16v643q0 7 4 11t12 4t12 -4t4 -11v-643q0 -16 -16 -16z"/>
<glyph glyph-name="circumflex" unicode="ˆ"/>
<glyph glyph-name="caron" unicode="ˇ"/>
<glyph glyph-name="breve" unicode="˘"/>
<glyph glyph-name="dotaccent" unicode="˙"/>
<glyph glyph-name="ring" unicode="˚"/>
<glyph glyph-name="ogonek" unicode="˛"/>
<glyph glyph-name="tilde" unicode="˜"/>
<glyph glyph-name="hungarumlaut" unicode="˝"/>
<glyph glyph-name="endash" horiz-adv-x="299" unicode="–" d="M257 321l-244 31h244v-31z"/>
<glyph glyph-name="emdash" horiz-adv-x="299" unicode="—" d="M257 321l-244 31h244v-31z"/>
<glyph glyph-name="quoteleft" horiz-adv-x="81" unicode="‘" d="M26 675q16 0 16 -16v-57q0 -6 -4 -10t-12 -5q-6 1 -10 5t-5 10v57q1 7 5 11t10 5z"/>
<glyph glyph-name="quoteright" horiz-adv-x="81" unicode="’" d="M26 675q16 0 16 -16v-57q0 -6 -4 -10t-12 -5q-6 1 -10 5t-5 10v57q1 7 5 11t10 5z"/>
<glyph glyph-name="quotedblleft" horiz-adv-x="162" unicode="“" d="M86 675q16 0 16 -16v-57q0 -6 -4 -10t-12 -5q-8 1 -12 5t-4 10v57q0 16 16 16zM26 675q16 0 16 -16v-57q0 -6 -4 -10t-12 -5q-6 1 -10 5t-5 10v57q1 7 5 11t10 5z"/>
<glyph glyph-name="quotedblright" horiz-adv-x="162" unicode="”" d="M86 675q16 0 16 -16v-57q0 -6 -4 -10t-12 -5q-8 1 -12 5t-4 10v57q0 16 16 16zM26 675q16 0 16 -16v-57q0 -6 -4 -10t-12 -5q-6 1 -10 5t-5 10v57q1 7 5 11t10 5z"/>
<glyph glyph-name="bullet" unicode="•"/>
<glyph glyph-name="trademark" horiz-adv-x="853" unicode="™"/>
<glyph glyph-name="glyph116" horiz-adv-x="0"/>
</font>
</defs>
</svg>
